HIERARCHY
ROOT SimulationBone
{
	OFFSET 0.000000 0.000000 0.000000
	CHANNELS 6 Xposition Yposition Zposition Zrotation Yrotation Xrotation 
	JOINT Hips
	{
		OFFSET 0.000000 0.000000 0.000000
		CHANNELS 6 Xposition Yposition Zposition Zrotation Yrotation Xrotation 
		JOINT RightUpLeg
		{
			OFFSET 0.103462 1.857831 10.548496
			CHANNELS 3 Zrotation Yrotation Xrotation
			JOINT RightLeg
			{
				OFFSET 43.500000 -0.000038 -0.000010
				CHANNELS 3 Zrotation Yrotation Xrotation
				JOINT RightFoot
				{
					OFFSET 42.372192 0.000011 0.000010
					CHANNELS 3 Zrotation Yrotation Xrotation
					JOINT RightToe
					{
						OFFSET 17.299999 0.000001 -0.000001
						CHANNELS 3 Zrotation Yrotation Xrotation
						End Site
						{
							OFFSET 0.000000 0.000000 0.000000
						}
					}
				}
			}
		}
		JOINT LeftUpLeg
		{
			OFFSET 0.103456 1.857825 -10.548502
			CHANNELS 3 Zrotation Yrotation Xrotation
			JOINT LeftLeg
			{
				OFFSET 43.500038 -0.000023 0.000011
				CHANNELS 3 Zrotation Yrotation Xrotation
				JOINT LeftFoot
				{
					OFFSET 42.372261 -0.000008 0.000011
					CHANNELS 3 Zrotation Yrotation Xrotation
					JOINT LeftToe
					{
						OFFSET 17.299994 -0.000004 0.000002
						CHANNELS 3 Zrotation Yrotation Xrotation
						End Site
						{
							OFFSET 0.000000 0.000000 0.000000
						}
					}
				}
			}
		}
		JOINT Spine
		{
			OFFSET 6.901965 -2.603729 -0.000002
			CHANNELS 3 Zrotation Yrotation Xrotation
			JOINT Spine1
			{
				OFFSET 12.588101 -0.000004 0.000003
				CHANNELS 3 Zrotation Yrotation Xrotation
				JOINT Spine2
				{
					OFFSET 12.343205 0.000006 0.000001
					CHANNELS 3 Zrotation Yrotation Xrotation
					JOINT Neck
					{
						OFFSET 25.832897 -0.000008 -0.000001
						CHANNELS 3 Zrotation Yrotation Xrotation
						JOINT Head
						{
							OFFSET 11.766601 0.000009 -0.000008
							CHANNELS 3 Zrotation Yrotation Xrotation
							End Site
							{
								OFFSET 0.000000 0.000000 0.000000
							}
						}
					}
					JOINT RightShoulder
					{
						OFFSET 19.745893 -1.480370 6.000097
						CHANNELS 3 Zrotation Yrotation Xrotation
						JOINT RightArm
						{
							OFFSET 11.284136 -0.000006 -0.000021
							CHANNELS 3 Zrotation Yrotation Xrotation
							JOINT RightForeArm
							{
								OFFSET 33.000042 0.000005 0.000030
								CHANNELS 3 Zrotation Yrotation Xrotation
								JOINT RightHand
								{
									OFFSET 25.200008 0.000013 0.000010
									CHANNELS 3 Zrotation Yrotation Xrotation
									End Site
									{
										OFFSET 0.000000 0.000000 0.000000
									}
								}
							}
						}
					}
					JOINT LeftShoulder
					{
						OFFSET 19.746088 -1.480379 -6.000076
						CHANNELS 3 Zrotation Yrotation Xrotation
						JOINT LeftArm
						{
							OFFSET 11.284133 -0.000016 -0.000013
							CHANNELS 3 Zrotation Yrotation Xrotation
							JOINT LeftForeArm
							{
								OFFSET 33.000095 0.000019 0.000001
								CHANNELS 3 Zrotation Yrotation Xrotation
								JOINT LeftHand
								{
									OFFSET 25.199785 0.000138 0.000422
									CHANNELS 3 Zrotation Yrotation Xrotation
									End Site
									{
										OFFSET 0.000000 0.000000 0.000000
									}
								}
							}
						}
					}
				}
			}
		}
	}
}
MOTION
Frames: 12
Frame Time: 0.033333
-294.709962 0.000000 352.444477 0.000000 80.716899 0.000000 0.249633 87.796577 -0.538748 95.432703 1.362497 179.985562 154.750995 1.103603 172.155779 -17.529105 -3.043633 -6.898147 66.952923 3.301580 -5.174693 21.454557 0.003111 0.000018 -164.744764 -5.974701 176.755447 -13.125455 3.430860 8.178847 88.158235 -6.037742 -2.335281 21.454551 -0.003087 0.000002 8.612397 1.336470 1.255077 7.243146 2.591966 2.591825 6.925027 2.607432 2.576132 -6.611421 4.630861 7.475653 -17.471479 -14.093216 13.920149 -165.260607 -71.305276 -16.544699 -5.428584 62.324267 31.504613 -34.308208 -16.935010 1.471160 6.515848 -3.217883 9.013762 170.604725 78.246101 -8.030195 -51.326648 -48.826570 -2.222113 -50.525450 17.881130 -1.959631 0.489864 6.944348 -41.123186 
-293.925594 0.000000 349.291567 0.000000 80.454782 0.000000 0.501935 86.949837 -0.587868 95.564794 1.059507 -179.605110 154.895576 2.733306 171.967470 -16.426152 -3.160875 -6.960141 69.147735 3.713591 -4.328914 21.454557 0.003104 0.000016 -163.386608 -5.681105 178.167055 -15.538291 3.577040 7.298300 90.289288 -5.357973 -2.123570 21.454551 -0.003097 -0.000001 8.587028 1.194250 1.165016 7.186948 2.314037 2.402248 6.868859 2.328354 2.388235 -6.216480 5.041828 7.578474 -17.619238 -14.163014 14.156942 -165.137691 -71.446436 -16.670289 -2.299829 62.455448 34.944248 -31.859212 -16.137922 1.366429 6.377010 -3.550912 8.802028 174.121275 78.263470 -4.451723 -49.980217 -49.374437 -0.918428 -51.686295 18.222615 -2.021161 0.743921 7.265061 -40.022375 
-293.123260 0.000000 346.093175 0.000000 80.209209 0.000000 0.874115 86.198677 -0.695115 96.000815 0.404053 -179.652815 155.214013 4.176803 170.439844 -19.443004 -2.361875 -4.911209 68.716061 3.168557 -1.454530 21.454560 0.003109 0.000016 -162.335169 -4.839203 179.980539 -19.168067 3.466436 6.024479 90.927091 -4.423202 -1.630177 21.454551 -0.003096 -0.000003 8.603182 0.898157 1.136901 7.211894 1.723949 2.327662 6.893905 1.737824 2.317220 -5.891851 5.393059 7.632017 -17.636593 -13.828205 14.158019 -163.837701 -71.289259 -18.009711 0.359384 61.839884 38.038355 -29.787391 -15.212556 1.265389 6.587959 -3.422581 9.042254 177.008806 78.140035 -1.515671 -47.754347 -50.533937 -0.156726 -52.010709 18.378741 -2.042589 0.934875 7.353308 -38.448142 
-292.328875 0.000000 342.858375 0.000000 80.014358 0.000000 1.342896 85.812843 -0.821334 96.611037 -0.422656 179.452751 156.068470 5.319005 171.051228 -22.592177 -2.273394 -4.501793 66.560501 4.972282 4.363455 21.454558 0.003105 0.000019 -161.893665 -3.616302 -178.371169 -23.918464 2.694524 4.662511 88.577240 -3.315384 -0.185563 21.454557 -0.003096 0.000000 8.633721 0.518312 1.209491 7.265130 0.959895 2.449126 6.947292 0.974533 2.443282 -5.537076 5.260528 7.839884 -17.904187 -13.078499 14.083247 -162.120605 -70.671961 -19.784495 2.853667 60.782475 40.529315 -28.228142 -14.588955 1.196234 6.663882 -2.886413 9.806741 178.998412 78.032589 0.507991 -44.888881 -52.092787 -0.455451 -51.008263 18.444058 -2.013328 1.604698 7.790153 -35.221035 
-291.542947 0.000000 339.593663 0.000000 79.883502 0.000000 1.638732 85.530197 -1.012221 96.980030 -1.521477 178.467224 156.040316 6.873710 172.793718 -26.873659 -1.970125 -6.689055 67.304022 7.437511 7.033913 21.454558 0.003123 0.000019 -163.484539 -1.948193 -176.750310 -31.504326 1.711579 3.450888 83.806360 -2.299123 0.762197 21.454557 -0.003112 0.000002 8.616443 0.071588 1.188255 7.220791 0.069141 2.378634 6.902982 0.083358 2.378163 -5.543753 5.435677 8.039050 -17.848842 -12.790167 14.208358 -160.187498 -69.573420 -21.792289 4.954977 59.335513 42.317841 -27.095127 -14.302458 1.157829 6.964652 -2.263191 9.705098 -177.552994 77.675616 4.015604 -42.337430 -53.398989 -2.119708 -48.078818 18.424707 -1.916902 2.655754 8.734524 -30.365010 
-290.764252 0.000000 336.308360 0.000000 79.809607 0.000000 1.835238 84.891197 -1.206577 97.657272 -2.788069 177.476604 155.406160 8.079111 174.350960 -33.426024 -2.727851 -8.628132 72.116423 8.532875 7.380602 21.454557 0.003100 0.000017 -167.451445 1.179007 -175.492804 -43.730566 2.102301 1.543171 76.669276 -0.518312 2.252527 21.454551 -0.003095 -0.000004 8.681472 -0.433703 1.078787 7.341687 -0.934724 2.128003 7.023782 -0.921997 2.133595 -5.224844 5.826992 8.340223 -17.883281 -12.518027 14.492277 -158.950113 -68.818261 -23.081907 6.920290 58.015340 42.720665 -26.326501 -13.824938 1.114223 7.296550 -1.927887 9.836266 -175.353086 77.219851 6.253110 -39.738457 -54.515657 -4.067869 -44.030220 17.939828 -1.761768 4.787485 9.435774 -24.667670 
-289.980586 0.000000 333.012749 0.000000 79.792486 0.000000 1.962497 84.625099 -1.432160 98.421548 -4.040257 176.010368 156.457122 8.996992 173.680714 -37.108585 -3.036665 -9.322577 76.101592 8.518841 6.830517 21.454555 0.003094 0.000016 -172.993611 4.876400 -174.415888 -58.053978 1.287492 -0.664901 70.423717 2.436405 5.747899 21.454550 -0.003090 -0.000001 8.759588 -0.925153 0.989533 7.491385 -1.912190 1.917469 7.173280 -1.900721 1.928970 -4.728114 6.086174 8.709950 -18.051072 -12.117691 14.777405 -158.024076 -68.690167 -24.040902 8.400489 57.577737 42.892160 -25.863321 -13.715071 1.099558 7.669172 -0.802408 8.974868 -173.894772 77.105247 7.739690 -37.350469 -55.899115 -5.994116 -39.240062 17.330469 -1.589837 6.942676 9.645430 -19.194457 
-289.197188 0.000000 329.716659 0.000000 79.833110 0.000000 2.215933 84.948624 -1.542676 99.231624 -4.424500 174.803619 159.097277 9.590602 172.970484 -38.303107 -2.529733 -9.653275 79.153041 8.297892 6.098910 21.454558 0.003117 0.000020 -178.828245 7.411697 -174.567833 -69.858089 0.168818 -1.998575 63.132272 4.216754 6.483454 21.454545 -0.003096 -0.000003 8.852513 -1.192953 0.807311 7.677595 -2.436639 1.534143 7.359297 -2.427481 1.548840 -4.456181 6.650475 9.039533 -17.746438 -12.434995 15.300448 -157.057003 -68.561999 -25.042590 8.471607 57.281040 42.821389 -25.558238 -13.604251 1.087529 7.973483 0.007960 8.241287 -172.516426 76.827074 9.144596 -35.168746 -56.912285 -8.119523 -34.427664 16.593075 -1.425055 10.221021 8.880466 -15.861436 
-288.414762 0.000000 326.421131 0.000000 79.922315 0.000000 2.458311 85.573143 -1.537630 100.002337 -4.315171 174.526397 162.627719 9.818693 174.358911 -37.953363 -3.140379 -10.188095 81.393684 8.396997 5.615567 21.454555 0.003112 0.000019 175.652016 8.683589 -174.537479 -77.922944 -0.941477 -2.594399 63.748471 3.927559 4.710733 21.454550 -0.003090 -0.000001 8.961509 -1.252374 0.458699 7.902905 -2.532993 0.831090 7.584492 -2.528070 0.846391 -4.207315 6.565844 9.497738 -17.610179 -12.233815 15.641898 -156.438612 -68.151218 -25.690172 6.825907 56.796896 42.180803 -25.532591 -13.595783 1.086567 8.176758 1.228415 8.482094 -169.450163 76.401212 12.274127 -33.170739 -57.662800 -9.516794 -29.908551 15.397352 -1.253403 12.573349 8.084919 -15.584463 
-287.630604 0.000000 323.117580 0.000000 80.066056 0.000000 2.542001 86.410088 -1.388742 100.388661 -3.725560 175.177871 166.403407 9.495296 175.665663 -36.475010 -3.408764 -10.013214 82.897869 8.135685 5.438599 21.454558 0.003112 0.000017 170.230266 8.804594 -174.759597 -82.204646 -1.302110 -1.629983 67.495547 2.692180 3.790461 21.454548 -0.003093 -0.000002 8.998068 -1.116688 0.107870 7.983452 -2.238066 0.138572 7.665090 -2.237318 0.152087 -3.715006 6.695581 9.740018 -17.524259 -11.964626 15.782103 -157.015899 -68.189740 -25.092508 4.284699 56.550835 40.882490 -25.553553 -13.644660 1.090036 8.136691 1.811936 9.943605 -164.706802 75.328005 17.126525 -29.020852 -58.164122 -11.516346 -27.439209 14.391612 -1.143639 14.132163 7.677097 -18.958809 
-286.858015 0.000000 319.805718 0.000000 80.272513 0.000000 2.596083 87.353210 -1.188718 100.639747 -2.934673 176.472908 170.506452 8.992711 177.272629 -34.054261 -3.352407 -9.621915 83.812165 7.758198 5.235309 21.454562 0.003101 0.000016 165.650734 8.466905 -174.769214 -82.701699 -1.213417 0.440552 67.772880 1.097853 3.639301 21.454557 -0.003098 0.000006 9.029495 -0.887429 -0.232602 8.051132 -1.756449 -0.526355 7.732900 -1.759744 -0.515742 -3.164679 7.682929 9.698982 -17.713578 -12.464872 16.131536 -157.665409 -68.892252 -24.407585 1.484135 56.983975 38.238572 -26.391766 -13.940440 1.122712 7.994570 1.799486 12.458687 -161.106868 74.152072 20.824410 -22.467687 -58.562745 -15.713135 -26.774007 14.388707 -1.132029 14.836909 6.430349 -23.916695 
-286.109112 0.000000 316.489643 0.000000 80.561248 0.000000 2.592043 88.146469 -0.984692 100.669899 -2.491475 177.842177 174.528231 8.658993 179.346342 -31.044996 -3.503922 -9.454338 84.348697 7.581316 5.143691 21.454557 0.003104 0.000015 161.754521 8.103396 -175.559467 -79.966004 -0.688821 2.870474 66.584420 -0.381530 4.422112 21.454553 -0.003094 -0.000001 9.029740 -0.707171 -0.527865 8.053841 -1.375884 -1.103665 7.735696 -1.382666 -1.095335 -3.263265 8.598433 9.501413 -17.407406 -12.724988 16.177672 -158.029896 -69.772097 -24.015112 -1.940840 57.519844 35.406799 -27.879944 -14.646516 1.193642 7.928405 1.752559 13.918755 -158.130668 73.678029 23.882400 -13.954758 -59.064525 -21.650460 -27.778436 14.603317 -1.163150 14.730044 5.978053 -28.233557 
